<svg width="687" height="348" viewBox="0 0 687 348" fill="none" xmlns="http://www.w3.org/2000/svg">
    <path d="M412.12 15C414.959 15.0299 417.022 16.0088 417.679 16.3311C418.667 16.8159 419.417 17.3373 419.854 17.6602C420.752 18.323 421.482 19.014 421.968 19.501C422.46 19.9944 422.947 20.5284 423.419 21.0811C424.829 21.2038 426.707 21.3267 429.392 21.4932C435.697 21.8849 441.497 22.4666 446.028 24.0352C448.504 24.8922 451.326 26.2748 453.775 28.6924C456.204 31.0894 457.615 33.8576 458.371 36.543L458.515 37.0791C459.679 41.7215 458.987 46.2694 458.036 49.7402C457.032 53.4043 455.402 57.0796 453.477 60.5488C452.934 61.528 452.355 62.513 451.742 63.5C451.5 63.8877 450 66.5 453.5 67.5C457 68.5 458.16 68.9342 459.83 68.2171C460.255 67.4038 460.833 66.5101 461.621 65.6309C463.34 63.7133 465.39 62.6516 465.694 62.4854C466.513 62.0377 467.365 61.6419 468.122 61.3135C469.663 60.6453 471.473 59.9735 473.27 59.4043C475.014 58.8522 476.87 58.3459 478.512 57.959C479.806 57.6541 481.996 57.1684 483.916 57.083L484.109 57.0742C484.201 57.07 484.353 57.0634 484.526 57.0586C484.855 57.0494 485.464 57.0395 486.2 57.0967C487.844 57.2244 490.146 57.6869 492.498 59.1611C496.482 61.6586 498.093 65.5636 498.606 66.8069L498.636 66.8799C499.232 68.3221 499.895 70.3199 500.696 72.9424L507.109 73.1426C510.305 73.2414 513.386 73.4262 515.823 73.6592C517.012 73.7729 518.238 73.9155 519.318 74.0996C519.374 74.1091 519.432 74.1201 519.493 74.1309C519.312 72.69 519.258 71.1641 519.435 69.6143C519.671 67.5366 520.361 65.0303 521.988 62.6562C520.152 56.1443 519.51 49.1424 521.76 42.4229C524.262 34.9496 529.657 29.819 536.098 26.5654C537.754 25.7283 539.785 24.7397 541.807 24.0713C543.691 23.4483 547.464 22.4304 551.785 23.7041C556.611 25.1267 559.299 28.5074 560.656 30.7998C561.878 32.8641 562.657 35.1224 563.147 36.5977C563.68 38.1998 564.158 39.8029 564.494 41.1445C564.65 41.7667 564.846 42.608 564.977 43.4717C565.033 43.8348 565.155 44.6933 565.151 45.7363C565.15 46.2137 565.126 47.3209 564.806 48.6719C564.622 49.4449 563.742 53.1231 560.117 55.8359L560.495 57.2285L560.496 57.2295C561.153 59.5938 561.747 62.1089 561.957 64.5088C562.008 65.0881 562.052 65.8309 562.039 66.6885C562.767 67.8465 563.311 68.913 563.675 69.6602C564.652 71.668 565.561 73.9895 566.229 76.3096C567.63 76.5704 569.434 77.0908 571.283 78.2012C572.31 76.7324 573.3 75.8139 573.483 75.6309L573.488 75.625C575.749 73.3661 578.457 72.2304 579.701 71.7305C581.347 71.0691 583.245 70.474 585.262 69.9131C589.324 68.7828 595.037 67.4713 602.678 65.8555L606.962 64.9551C611.156 64.0795 615.033 63.2873 618.17 62.6631C620.256 62.248 622.049 61.901 623.405 61.6504L623.585 61.617C624.444 61.4571 626.186 61.1327 627.403 61.0732H627.406C630.464 60.9245 634.195 61.5318 637.674 64.001C640.835 66.2444 642.617 69.2116 643.675 71.4795C645.628 75.6682 646.844 81.4304 647.992 87.8027L648.457 90.3154C648.473 90.4014 648.49 90.4869 648.507 90.5723C650.524 90.2928 652.562 90.0928 654.38 90.166C656.139 90.2369 658.338 90.5601 660.643 91.623C662.932 92.6781 664.472 94.0758 665.347 94.9502L665.35 94.9521C667.237 96.84 668.166 98.9828 668.405 99.5338L668.427 99.584C668.832 100.514 669.161 101.459 669.417 102.259C669.94 103.891 670.45 105.832 670.926 107.823C671.89 111.857 672.902 116.893 673.78 121.836C674.658 126.778 675.441 131.839 675.919 135.928C676.155 137.943 676.341 139.932 676.407 141.635C676.439 142.465 676.454 143.483 676.382 144.521L676.378 144.582C676.342 145.141 676.176 147.768 674.763 150.409C674.314 151.247 673.314 153.062 671.492 154.797C669.602 156.597 667.571 157.627 665.894 158.276C665.164 158.56 664.358 158.816 663.498 159.058C664.63 161.905 665.71 164.342 666.391 165.594L666.623 166.012C667.765 168.031 668.619 168.954 669.158 169.412C669.627 169.81 670.23 170.182 671.484 170.498L672.239 170.698C674 171.189 675.761 171.848 677.34 172.635C678.222 173.075 679.346 173.701 680.463 174.55L680.467 174.553C681.14 175.065 683.746 177.045 685.128 180.644C685.749 182.261 685.896 183.661 685.936 184.041L685.936 184.048C686 184.65 686.017 185.176 686.022 185.531C686.034 186.253 686.006 186.976 685.974 187.578C685.906 188.821 685.775 190.324 685.614 191.899C685.289 195.092 684.786 199.141 684.227 203.215C683.667 207.297 683.035 211.514 682.439 215.051C681.942 218.002 681.332 221.361 680.689 223.562L680.56 223.985C679.645 226.869 678.006 229.946 675.131 232.505C672.312 235.013 669.096 236.318 666.152 236.997C660.841 238.223 654.478 237.806 648.006 237.047C641.553 236.29 635.556 234.927 630 232.724C623.6 240.104 611 247.057 605.5 249.611C607.74 252.371 610.139 255.745 612.745 259.557C616.084 264.441 620.458 271.394 619.358 279.945C618.344 287.831 612.951 293.993 608.575 298.741L608.574 298.742C598.065 310.144 581.181 320.663 566.007 325.426C559.562 327.448 550.955 328.482 543.069 328.793C535.164 329.105 526.481 328.749 519.821 327.268C504.102 323.77 490.273 315.953 479.849 304.942C475.699 302.384 462.5 303.5 449 301.5C438.2 299.9 434.501 306.167 434.001 309.5C434.556 315.983 433.809 322.684 430.434 328.349C428.115 332.24 424.658 335.405 420.192 337.22C415.844 338.986 411.317 339.163 407.153 338.487C403.201 337.846 399.221 336.685 395.822 335.165C389.821 339.754 379.581 344.237 372.079 343.824C362.67 343.307 354.861 337.372 351.965 327.842C350.805 324.025 349.923 320.099 349.747 316.502C347.88 315.756 345.308 314.561 343.529 313.584C341.742 312.603 339.895 311.472 338.236 310.295C336.837 309.302 334.636 307.632 332.942 305.479C330.498 302.371 329.111 298.955 328.604 295.5C326.208 293.5 325 294 317.955 293C314.019 292.441 311.046 293.476 309.227 294.605C308.675 295.107 308.109 295.57 307.532 296C305.615 297.428 303.586 298.482 301.61 299.306C298.133 300.755 294.025 301.801 289.999 302.782C275.827 306.236 257.143 306.311 243.937 302.625C240.124 301.56 236.467 300.265 232.975 298.747L235.215 303.139L229.485 306.944C231.239 311.582 232.426 316.468 232.262 321.432C232.062 327.458 229.896 332.807 226.009 337.235L226.008 337.237C223.601 339.978 220.77 342.407 217.844 344.238C215.316 345.82 211.122 347.973 206.256 347.973C202.046 347.973 199.105 346.004 197.908 345.098C196.473 344.011 195.41 342.809 194.694 341.897C193.23 340.034 192.054 337.893 191.153 335.857L185.006 321.963L191.785 317.023C190.812 314.823 189.962 312.394 189.402 310.252C189.152 309.293 188.915 308.232 188.75 307.145C188.094 306.339 187.483 305.495 186.944 304.7C185.651 302.794 184.075 300.043 182.908 297.726C180.438 297.601 177.341 296.861 174.409 294.465C172.405 292.828 171.191 290.951 170.555 289.891C169.872 288.754 169.251 287.504 168.738 286.448L168.737 286.446C167.886 284.694 167.125 282.814 166.595 281.067C166.457 280.613 166.303 280.065 166.164 279.456L145.781 291.978C141.957 294.327 138.382 296.448 135.684 297.979C134.358 298.732 133.122 299.412 132.128 299.917C131.674 300.148 131.021 300.471 130.335 300.752C130.058 300.866 129.318 301.165 128.378 301.4C127.962 301.505 126.896 301.756 125.517 301.783L125.482 301.784C124.759 301.799 120.513 301.89 116.821 298.521C116.572 299.862 116.359 301.023 116.182 301.957C116.033 302.742 115.906 303.399 115.811 303.878C115.765 304.106 115.714 304.357 115.665 304.582C115.645 304.675 115.598 304.884 115.537 305.125C115.514 305.217 115.437 305.516 115.318 305.886C115.268 306.043 115.126 306.48 114.894 307.019C114.767 307.305 114.414 308.014 114.178 308.433C113.741 309.121 112.198 310.969 110.987 312.022L110.988 312.024C109.812 312.921 108.748 313.394 108.398 313.546C107.916 313.756 107.515 313.894 107.288 313.969C106.831 314.118 106.461 314.21 106.299 314.249C105.944 314.335 105.648 314.391 105.522 314.414C105.229 314.468 104.944 314.511 104.745 314.541C104.313 314.606 103.779 314.678 103.214 314.751C102.063 314.899 100.54 315.081 98.9121 315.265C97.607 315.412 96.2185 315.565 95.0273 315.635L95.0002 315.636C94.1199 315.688 91.7411 315.828 89.1982 315.113C87.6709 314.684 85.6849 313.848 83.8193 312.185C81.8947 310.469 80.7599 308.464 80.1259 306.692C79.8644 305.961 79.6834 305.233 79.5566 304.557C77.117 304.188 74.497 303.329 72.2392 302.535C70.2798 301.847 67.9217 300.959 65.1494 299.892L62.2392 298.766L47.1447 292.906C43.2981 291.413 40.7636 287.71 40.7636 283.584V272.16C40.7636 268.738 42.5137 265.554 45.4026 263.719L59.0625 255.044C59.4351 254.807 59.8061 254.573 60.1748 254.341C54.2355 254.012 45.9572 253.599 39.4873 253.318C33.3507 253.051 28.8549 252.792 25.6796 252.345C23.0723 251.977 18.165 251.168 14.3525 247.241L13.9873 246.852C11.6957 244.319 10.9191 241.549 10.5976 240.061C10.2616 238.504 10.136 236.912 10.0722 235.529C9.94142 232.694 9.99211 228.509 10.1933 222.339C10.601 209.835 11.6907 187.555 13.7089 147.734C15.9092 104.317 17.0476 82.0058 17.9072 70.376C18.3215 64.7705 18.7178 60.8428 19.3193 58.1035C19.6368 56.6579 20.179 54.7046 21.3193 52.7373C22.6581 50.4276 24.2584 49.0804 24.9794 48.4951L24.9824 48.4922C26.7706 47.0417 28.791 45.9619 30.7734 45.2734C32.0862 44.8176 35.3636 43.329 39 44C40.053 44.0747 42.2584 44.7976 44.1318 44.8896C47.8612 45.0729 52.835 45.2666 58.1357 45.4248C73.449 45.8813 77.6813 45.5606 80.4003 44.9209C86.5457 43.4755 95.0646 42.9853 102.811 43.0625C110.611 43.1402 119.174 43.8099 125.495 45.3252C149.49 51.0778 169.807 65.4731 182.203 86.0146L182.205 86.0176C182.622 86.7093 183.072 87.5543 183.536 88.5C184.357 90.1667 186.8 93.4 190 93C192.679 92.6651 193.226 92.5387 193.425 91.7832L193.682 90.0958C194.136 87.1322 194.597 84.2379 194.999 81.8516C195.237 80.439 195.463 79.1519 195.66 78.1133L195.668 78.0708C195.801 77.3699 196.078 75.9161 196.452 74.7617L196.453 74.7578C198.05 69.8386 201.91 66.9466 205.599 65.8154C208.884 64.8078 211.894 65.153 213.92 65.6357H213.922C214.809 65.8472 218.445 66.5814 222.06 67.2568C224.55 67.7225 227.862 68.3169 230.598 69.3115C232.335 69.9434 234.568 70.9923 236.62 72.7803C237.401 72.227 238.246 71.7477 239.149 71.3535C242.13 70.0524 244.977 70.0157 246.507 70.0615C249.667 70.1562 253.612 70.9457 257.782 71.874L257.968 71.9154C260.174 72.4065 262.747 72.9791 264.897 73.7236C265.715 74.0068 266.765 74.4073 267.906 75C270.437 76.1667 275 80.5 279 79C280.735 78.3494 280.78 76.4647 280.591 75.0728C280.501 74.6092 280.413 74.1406 280.329 73.668L280.325 73.6447C280.152 72.6815 279.991 71.7022 279.836 70.7158C279.688 69.7763 279.496 68.5078 279.417 67.2764C279.349 66.2098 279.236 63.7062 280.229 60.9297C281.492 57.3991 283.936 54.9586 286.532 53.5088C288.409 52.461 290.263 52.0114 290.869 51.8647L290.931 51.8496C292.276 51.5204 303.234 48.8501 315.305 45.9092L318.303 45.1826C325.134 43.5348 330.824 42.2333 335.465 41.3906C340.468 40.4823 345.652 39.8172 350.263 40.4844C352.778 40.8484 355.625 41.6699 358.323 43.4512C361.122 45.299 363.078 47.7292 364.373 50.2852C364.631 50.7944 364.863 51.312 365.072 51.8337C366.516 54.6201 369.337 58.166 373 57.5C378.315 56.5337 381.582 55.1005 380.079 52.2983C380.02 52.1987 379.962 52.0993 379.904 52C379.461 51.239 379.049 50.4893 378.681 49.7725C378.244 48.923 377.78 47.9478 377.392 46.9482C377.229 46.5317 376.38 44.4634 376.274 41.8926L376.264 41.3721L376.268 41.0234C376.359 37.4495 377.837 34.7944 378.893 33.3164C380.028 31.7285 381.313 30.5907 382.299 29.833C384.281 28.3088 386.507 27.2183 388.508 26.4453C389.681 25.992 393.919 23.768 397.537 21.458C399.571 20.1597 401.55 18.9474 403.129 18.0283C403.901 17.5785 404.684 17.1368 405.376 16.7764C405.703 16.6057 406.17 16.3694 406.684 16.1445C406.932 16.036 407.36 15.8547 407.89 15.6768L407.918 15.6672C408.218 15.5653 409.666 15.0732 411.542 15.0068L412.12 15Z" fill="#6B6B6B"/>
    <path d="M402.12 0C404.959 0.0299208 407.022 1.00877 407.679 1.33105C408.667 1.8159 409.417 2.33728 409.854 2.66016C410.752 3.32301 411.482 4.01401 411.968 4.50098C412.46 4.99437 412.947 5.52837 413.419 6.08105C414.829 6.20384 416.707 6.32668 419.392 6.49316C425.697 6.88491 431.497 7.46664 436.028 9.03516C438.504 9.89218 441.326 11.2748 443.775 13.6924C446.204 16.0894 447.615 18.8576 448.371 21.543L448.515 22.0791C449.679 26.7215 448.987 31.2694 448.036 34.7402C447.032 38.4043 445.402 42.0796 443.477 45.5488C442.934 46.528 442.355 47.513 441.742 48.5C441.5 48.8877 440 51.5 443.5 52.5C447 53.5 448.16 53.9342 449.83 53.2171C450.255 52.4038 450.833 51.5101 451.621 50.6309C453.34 48.7133 455.39 47.6516 455.694 47.4854C456.513 47.0377 457.365 46.6419 458.122 46.3135C459.663 45.6453 461.473 44.9735 463.27 44.4043C465.014 43.8522 466.87 43.3459 468.512 42.959C469.806 42.6541 471.996 42.1684 473.916 42.083L474.109 42.0742C474.201 42.07 474.353 42.0634 474.526 42.0586C474.855 42.0494 475.464 42.0395 476.2 42.0967C477.844 42.2244 480.146 42.6869 482.498 44.1611C486.482 46.6586 488.093 50.5636 488.606 51.8069L488.636 51.8799C489.232 53.3221 489.895 55.3199 490.696 57.9424L497.109 58.1426C500.305 58.2414 503.386 58.4262 505.823 58.6592C507.012 58.7729 508.238 58.9155 509.318 59.0996C509.374 59.1091 509.432 59.1201 509.493 59.1309C509.312 57.69 509.258 56.1641 509.435 54.6143C509.671 52.5366 510.361 50.0303 511.988 47.6562C510.152 41.1443 509.51 34.1424 511.76 27.4229C514.262 19.9496 519.657 14.819 526.098 11.5654C527.754 10.7283 529.785 9.73971 531.807 9.07129C533.691 8.44826 537.464 7.43036 541.785 8.7041C546.611 10.1267 549.299 13.5074 550.656 15.7998C551.878 17.8641 552.657 20.1224 553.147 21.5977C553.68 23.1998 554.158 24.8029 554.494 26.1445C554.65 26.7667 554.846 27.608 554.977 28.4717C555.033 28.8348 555.155 29.6933 555.151 30.7363C555.15 31.2137 555.126 32.3209 554.806 33.6719C554.622 34.4449 553.742 38.1231 550.117 40.8359L550.495 42.2285L550.496 42.2295C551.153 44.5938 551.747 47.1089 551.957 49.5088C552.008 50.0881 552.052 50.8309 552.039 51.6885C552.767 52.8465 553.311 53.913 553.675 54.6602C554.652 56.668 555.561 58.9895 556.229 61.3096C557.63 61.5704 559.434 62.0908 561.283 63.2012C562.31 61.7324 563.3 60.8139 563.483 60.6309L563.488 60.625C565.749 58.3661 568.457 57.2304 569.701 56.7305C571.347 56.0691 573.245 55.474 575.262 54.9131C579.324 53.7828 585.037 52.4713 592.678 50.8555L596.962 49.9551C601.156 49.0795 605.033 48.2873 608.17 47.6631C610.256 47.248 612.049 46.901 613.405 46.6504L613.585 46.617C614.444 46.4571 616.186 46.1327 617.403 46.0732H617.406C620.464 45.9245 624.195 46.5318 627.674 49.001C630.835 51.2444 632.617 54.2116 633.675 56.4795C635.628 60.6682 636.844 66.4304 637.992 72.8027L638.457 75.3154C638.473 75.4014 638.49 75.4869 638.507 75.5723C640.524 75.2928 642.562 75.0928 644.38 75.166C646.139 75.2369 648.338 75.5601 650.643 76.623C652.932 77.6781 654.472 79.0758 655.347 79.9502L655.35 79.9521C657.237 81.84 658.166 83.9828 658.405 84.5338L658.427 84.584C658.832 85.5135 659.161 86.4586 659.417 87.2588C659.94 88.891 660.45 90.8321 660.926 92.8232C661.89 96.8574 662.902 101.893 663.78 106.836C664.658 111.778 665.441 116.839 665.919 120.928C666.155 122.943 666.341 124.932 666.407 126.635C666.439 127.465 666.454 128.483 666.382 129.521L666.378 129.582C666.342 130.141 666.176 132.768 664.763 135.409C664.314 136.247 663.314 138.062 661.492 139.797C659.602 141.597 657.571 142.627 655.894 143.276C655.164 143.56 654.358 143.816 653.498 144.058C654.63 146.905 655.71 149.342 656.391 150.594L656.623 151.012C657.765 153.031 658.619 153.954 659.158 154.412C659.627 154.81 660.23 155.182 661.484 155.498L662.239 155.698C664 156.189 665.761 156.848 667.34 157.635C668.222 158.075 669.346 158.701 670.463 159.55L670.467 159.553C671.14 160.065 673.746 162.045 675.128 165.644C675.749 167.261 675.896 168.661 675.936 169.041L675.936 169.048C676 169.65 676.017 170.176 676.022 170.531C676.034 171.253 676.006 171.976 675.974 172.578C675.906 173.821 675.775 175.324 675.614 176.899C675.289 180.092 674.786 184.141 674.227 188.215C673.667 192.297 673.035 196.514 672.439 200.051C671.942 203.002 671.332 206.361 670.689 208.562L670.56 208.985C669.645 211.869 668.006 214.946 665.131 217.505C662.312 220.013 659.096 221.318 656.152 221.997C650.841 223.223 644.478 222.806 638.006 222.047C631.553 221.29 625.556 219.927 620 217.724C613.6 225.104 601 232.057 595.5 234.611C597.74 237.371 600.139 240.745 602.745 244.557C606.084 249.441 610.458 256.394 609.358 264.945C608.344 272.831 602.951 278.993 598.575 283.741L598.574 283.742C588.065 295.144 571.181 305.663 556.007 310.426C549.562 312.448 540.955 313.482 533.069 313.793C525.164 314.105 516.481 313.749 509.821 312.268C494.102 308.77 480.273 300.953 469.849 289.942C465.699 287.384 452.5 288.5 439 286.5C428.2 284.9 424.501 291.167 424.001 294.5C424.556 300.983 423.809 307.684 420.434 313.349C418.115 317.24 414.658 320.405 410.192 322.22C405.844 323.986 401.317 324.163 397.153 323.487C393.201 322.846 389.221 321.685 385.822 320.165C379.821 324.754 369.581 329.237 362.079 328.824C352.67 328.307 344.861 322.372 341.965 312.842C340.805 309.025 339.923 305.099 339.747 301.502C337.88 300.756 335.308 299.561 333.529 298.584C331.742 297.603 329.895 296.472 328.236 295.295C326.837 294.302 324.636 292.632 322.942 290.479C320.498 287.371 319.111 283.955 318.604 280.5C316.208 278.5 315 279 307.955 278C304.019 277.441 301.046 278.476 299.227 279.605C298.675 280.107 298.109 280.57 297.532 281C295.615 282.428 293.586 283.482 291.61 284.306C288.133 285.755 284.025 286.801 279.999 287.782C265.827 291.236 247.143 291.311 233.937 287.625C230.124 286.56 226.467 285.265 222.975 283.747L225.215 288.139L219.485 291.944C221.239 296.582 222.426 301.468 222.262 306.432C222.062 312.458 219.896 317.807 216.009 322.235L216.008 322.237C213.601 324.978 210.77 327.407 207.844 329.238C205.316 330.82 201.122 332.973 196.256 332.973C192.046 332.973 189.105 331.004 187.908 330.098C186.473 329.011 185.41 327.809 184.694 326.897C183.23 325.034 182.054 322.893 181.153 320.857L175.006 306.963L181.785 302.023C180.812 299.823 179.962 297.394 179.402 295.252C179.152 294.293 178.915 293.232 178.75 292.145C178.094 291.339 177.483 290.495 176.944 289.7C175.651 287.794 174.075 285.043 172.908 282.726C170.438 282.601 167.341 281.861 164.409 279.465C162.405 277.828 161.191 275.951 160.555 274.891C159.872 273.754 159.251 272.504 158.738 271.448L158.737 271.446C157.886 269.694 157.125 267.814 156.595 266.067C156.457 265.613 156.303 265.065 156.164 264.456L135.781 276.978C131.957 279.327 128.382 281.448 125.684 282.979C124.358 283.732 123.122 284.412 122.128 284.917C121.674 285.148 121.021 285.471 120.335 285.752C120.058 285.866 119.318 286.165 118.378 286.4C117.962 286.505 116.896 286.756 115.517 286.783L115.482 286.784C114.759 286.799 110.513 286.89 106.821 283.521C106.572 284.862 106.359 286.023 106.182 286.957C106.033 287.742 105.906 288.399 105.811 288.878C105.765 289.106 105.714 289.357 105.665 289.582C105.645 289.675 105.598 289.884 105.537 290.125C105.514 290.217 105.437 290.516 105.318 290.886C105.268 291.043 105.126 291.48 104.894 292.019C104.767 292.305 104.414 293.014 104.178 293.433C103.741 294.121 102.198 295.969 100.987 297.022L100.988 297.024C99.8118 297.921 98.7478 298.394 98.3984 298.546C97.9155 298.756 97.5154 298.894 97.288 298.969C96.8313 299.118 96.4608 299.21 96.2988 299.249C95.9437 299.335 95.6481 299.391 95.5224 299.414C95.2291 299.468 94.9439 299.511 94.7451 299.541C94.313 299.606 93.7786 299.678 93.2138 299.751C92.0627 299.899 90.5401 300.081 88.9121 300.265C87.607 300.412 86.2185 300.565 85.0273 300.635L85.0002 300.636C84.1199 300.688 81.7411 300.828 79.1982 300.113C77.6709 299.684 75.6849 298.848 73.8193 297.185C71.8947 295.469 70.7599 293.464 70.1259 291.692C69.8644 290.961 69.6834 290.233 69.5566 289.557C67.117 289.188 64.497 288.329 62.2392 287.535C60.2798 286.847 57.9217 285.959 55.1494 284.892L52.2392 283.766L37.1447 277.906C33.2981 276.413 30.7636 272.71 30.7636 268.584V257.16C30.7636 253.738 32.5137 250.554 35.4026 248.719L49.0625 240.044C49.4351 239.807 49.8061 239.573 50.1748 239.341C44.2355 239.012 35.9572 238.599 29.4873 238.318C23.3507 238.051 18.8549 237.792 15.6796 237.345C13.0723 236.977 8.16502 236.168 4.35249 232.241L3.98726 231.852C1.69568 229.319 0.919064 226.549 0.59761 225.061C0.261629 223.504 0.135999 221.912 0.0722195 220.529C-0.0585773 217.694 -0.00788815 213.509 0.193313 207.339C0.601044 194.835 1.69072 172.555 3.70894 132.734C5.90916 89.3175 7.04764 67.0058 7.90718 55.376C8.32147 49.7705 8.71775 45.8428 9.31929 43.1035C9.63675 41.6579 10.179 39.7046 11.3193 37.7373C12.6581 35.4276 14.2584 34.0804 14.9794 33.4951L14.9824 33.4922C16.7706 32.0417 18.791 30.9619 20.7734 30.2734C22.0862 29.8176 25.3636 28.329 29 29C30.053 29.0747 32.2584 29.7976 34.1318 29.8896C37.8612 30.0729 42.835 30.2666 48.1357 30.4248C63.449 30.8813 67.6813 30.5606 70.4003 29.9209C76.5457 28.4755 85.0646 27.9853 92.8115 28.0625C100.611 28.1402 109.174 28.8099 115.495 30.3252C139.49 36.0778 159.807 50.4731 172.203 71.0146L172.205 71.0176C172.622 71.7093 173.072 72.5543 173.536 73.5C174.357 75.1667 176.8 78.4 180 78C182.679 77.6651 183.226 77.5387 183.425 76.7832L183.682 75.0958C184.136 72.1322 184.597 69.2379 184.999 66.8516C185.237 65.439 185.463 64.1519 185.66 63.1133L185.668 63.0708C185.801 62.3699 186.078 60.9161 186.452 59.7617L186.453 59.7578C188.05 54.8386 191.91 51.9466 195.599 50.8154C198.884 49.8078 201.894 50.153 203.92 50.6357H203.922C204.809 50.8472 208.445 51.5814 212.06 52.2568C214.55 52.7225 217.862 53.3169 220.598 54.3115C222.335 54.9434 224.568 55.9923 226.62 57.7803C227.401 57.227 228.246 56.7477 229.149 56.3535C232.13 55.0524 234.977 55.0157 236.507 55.0615C239.667 55.1562 243.612 55.9457 247.782 56.874L247.968 56.9154C250.174 57.4065 252.747 57.9791 254.897 58.7236C255.715 59.0068 256.765 59.4073 257.906 60C260.437 61.1667 265 65.5 269 64C270.735 63.3494 270.78 61.4647 270.591 60.0728C270.501 59.6092 270.413 59.1406 270.329 58.668L270.325 58.6447C270.152 57.6815 269.991 56.7022 269.836 55.7158C269.688 54.7763 269.496 53.5078 269.417 52.2764C269.349 51.2098 269.236 48.7062 270.229 45.9297C271.492 42.3991 273.936 39.9586 276.532 38.5088C278.409 37.461 280.263 37.0114 280.869 36.8647L280.931 36.8496C282.276 36.5204 293.234 33.8501 305.305 30.9092L308.303 30.1826C315.134 28.5348 320.824 27.2333 325.465 26.3906C330.468 25.4823 335.652 24.8172 340.263 25.4844C342.778 25.8484 345.625 26.6699 348.323 28.4512C351.122 30.299 353.078 32.7292 354.373 35.2852C354.631 35.7944 354.863 36.312 355.072 36.8337C356.516 39.6201 359.337 43.166 363 42.5C368.315 41.5337 371.582 40.1005 370.079 37.2983C370.02 37.1987 369.962 37.0993 369.904 37C369.461 36.239 369.049 35.4893 368.681 34.7725C368.244 33.923 367.78 32.9478 367.392 31.9482C367.229 31.5317 366.38 29.4634 366.274 26.8926L366.264 26.3721L366.268 26.0234C366.359 22.4495 367.837 19.7944 368.893 18.3164C370.028 16.7285 371.313 15.5907 372.299 14.833C374.281 13.3088 376.507 12.2183 378.508 11.4453C379.681 10.992 383.919 8.76803 387.537 6.45801C389.571 5.15965 391.55 3.94741 393.129 3.02832C393.901 2.57851 394.684 2.1368 395.376 1.77637C395.703 1.60572 396.17 1.36935 396.684 1.14453C396.932 1.03599 397.36 0.854742 397.89 0.676758L397.918 0.667201C398.218 0.565301 399.666 0.0731516 401.542 0.00683594L402.12 0Z" fill="white"/>
    <path d="M180.935 257C186.334 257 190.735 260.6 194.734 268.5C198.134 275 198.535 275.5 201.435 275.4C204.234 275.2 204.835 275.7 206.234 279.3C207.834 283.3 207.834 283.5 205.834 284.9C203.234 286.6 203.234 286.8 206.134 293.2C209.734 301.2 210.334 305.4 208.234 310.1C206.534 313.799 199.035 320 196.234 320C195.534 320 194.234 318 193.234 315.5L191.534 310.9L194.134 308.5C197.334 305.5 197.334 304.5 194.134 297.3C192.534 293.5 191.734 290.4 192.034 288.4C192.434 286.001 192.134 285.2 190.435 284.4C189.235 283.9 186.734 280.6 185.034 277.1C181.234 269.5 180.334 268.8 175.935 269.4C173.035 269.8 172.534 269.5 170.634 265.8C169.534 263.6 168.834 261.3 169.034 260.6C169.635 259 176.435 257 180.935 257Z" fill="#4A7A9D"/>
    <path d="M382.264 295.761C386.112 295.271 389.424 294.983 389.625 295.117C389.824 295.253 388.295 297.429 386.227 299.953L382.466 304.542L379.909 302.258C375.004 297.872 374.528 297.375 374.895 297.015C375.1 296.814 378.415 296.25 382.264 295.761Z" fill="#4A7A9D"/>
    <path d="M529.638 167.469C546.477 165.399 567.095 169.455 571.123 175.629C572.532 177.789 572.356 179.203 568.871 193.674C566.791 202.308 564.479 210.11 563.732 211.011L563.589 211.177C563.266 211.514 562.842 211.834 562.38 211.995C560.688 212.586 557.612 211.966 549.857 209.86C544.461 208.394 539.955 208.798 534.508 209.731C522.501 212.576 516.302 221.008 516.436 233.045C516.694 239.637 518.359 244.667 522.237 249.268C522.405 249.466 522.751 249.855 522.751 249.855C523.968 251.202 525.304 252.35 526.744 253.311C534.687 258.607 545.716 258.098 556.325 252.353C559.147 250.826 561.939 248.928 564.635 246.671C565.667 245.807 566.684 244.89 567.685 243.922L570.067 241.478C577.772 233.113 580.682 234.431 592.426 251.611L593.324 252.955C598.829 261.562 598.067 265.849 589.285 275.377L585.758 278.889C576.71 287.25 563.802 294.877 552.264 298.499C551.032 298.885 549.649 299.235 548.151 299.548C537.668 301.735 521.566 302.075 512.536 300.066C489.613 294.966 471.899 279.229 465.155 257.973C461.774 247.316 460.929 231.967 463.143 221.473C465.138 212.021 471.282 199.54 477.302 192.71C488.826 179.638 508.727 170.04 529.638 167.469Z" fill="#61DAFB"/>
    <path d="M353.394 283.723C354.189 280.759 355.161 280.884 357.277 284.223C358.237 285.735 360.173 288.211 361.58 289.723C363.939 292.26 363.695 293.014 360.632 292.631C360.284 292.587 358.372 292.442 356.382 292.308C353.067 292.085 352.764 291.81 352.777 289.02C352.784 287.345 353.063 284.961 353.394 283.723Z" fill="#4A7A9D"/>
    <path d="M92.8614 230.393C94.3202 229.468 103.761 229.101 103.764 229.968C103.764 229.991 103.754 230.066 103.736 230.187C103.615 231.004 103.101 233.961 102.36 238.128C101.997 240.173 101.579 242.509 101.127 245.027C100.366 249.268 99.5081 254.024 98.6475 258.77C96.0794 272.937 93.4908 287.022 93.4093 287.084C93.3274 287.145 90.6744 287.487 87.5137 287.843C82.017 288.462 81.7644 288.391 81.7784 286.232C81.7981 283.248 84.2953 269.239 86.9288 256C87.7066 252.09 88.496 248.247 89.2374 244.774C89.657 242.809 90.0608 240.962 90.4386 239.289C90.7218 238.034 90.9904 236.877 91.2393 235.842C91.426 235.065 91.6019 234.356 91.7647 233.726C92.2551 231.827 92.6291 230.635 92.8321 230.418C92.8423 230.407 92.852 230.399 92.8614 230.393Z" fill="#4A7A9D"/>
    <path d="M402.308 277.156C403.166 273.733 404.347 273.754 406.111 277.223C409.246 283.386 409.135 284.107 404.773 285.853C398.356 288.42 397.639 288.104 399.789 283.656C400.803 281.556 401.937 278.631 402.308 277.156Z" fill="#4A7A9D"/>
    <path d="M254.129 145.493C265.712 143.919 279.071 146.199 287.748 151.232C287.891 151.315 288.034 151.399 288.177 151.484C289.339 152.18 290.497 152.962 291.644 153.819C300.656 160.559 308.946 171.984 312.688 183.191C318.328 200.09 312.146 209.816 288.422 221.361C274.853 227.964 266.856 230.828 264.508 229.928C263.674 229.608 261.251 226.49 258.549 222.582C257.713 221.373 256.851 220.088 256 218.788C255.017 217.286 254.051 215.761 253.159 214.308C250.665 210.239 248.764 206.721 248.764 205.761C248.764 204.368 250.055 202.871 252.514 201.412C256.554 199.017 259.219 197.323 260.815 196.105C261.288 195.744 261.667 195.425 261.96 195.142C262.143 194.965 262.293 194.802 262.411 194.651C262.485 194.558 262.546 194.469 262.596 194.385C262.703 194.202 262.756 194.041 262.757 193.897C262.761 193.306 261.603 191.731 260.183 190.397C258.119 188.458 256.536 187.973 252.275 187.973C247.835 187.973 246.309 188.483 243.107 191.037C242.94 191.17 242.775 191.305 242.613 191.442C240.727 193.042 239.216 194.897 238.075 196.927C237.73 197.541 237.419 198.172 237.142 198.816C236.776 199.666 236.469 200.539 236.221 201.432C235.877 202.668 235.644 203.942 235.524 205.239C235.337 207.247 235.417 209.311 235.76 211.384C236.757 217.407 239.981 223.497 245.358 228.454C245.484 228.57 245.611 228.685 245.737 228.799C246.821 229.773 247.928 230.661 249.062 231.464C249.519 231.788 249.981 232.097 250.446 232.394C251.084 232.799 251.73 233.179 252.385 233.533C253.401 234.082 254.438 234.57 255.497 234.995C256.924 235.568 258.391 236.029 259.902 236.378C265.248 237.613 271.147 237.454 277.764 235.939C296.465 231.66 296.242 231.489 295.467 249.604C295.412 250.896 295.355 252.112 295.296 253.258C294.404 270.446 292.611 271.842 277.038 275.638C264.684 278.649 248.196 278.627 237.299 275.585C218.382 270.303 204.305 258.57 195.774 240.973C191.618 232.4 189.35 223.502 188.976 214.645C188.842 211.484 188.949 208.328 189.298 205.194C189.49 203.47 189.755 201.753 190.093 200.045C190.346 198.764 190.641 197.489 190.977 196.22C191.228 195.268 191.503 194.319 191.801 193.375C192.695 190.543 193.796 187.747 195.107 185.002C200.797 173.078 209.55 163.939 222.541 156.379C222.956 156.137 223.375 155.897 223.799 155.659C227.005 153.856 232.01 151.785 237.251 149.971C239.169 149.307 241.118 148.678 243.023 148.108C244.332 147.717 245.62 147.354 246.862 147.027C247.546 146.848 248.215 146.679 248.866 146.523C249.355 146.406 249.833 146.297 250.299 146.194C251.698 145.887 252.991 145.648 254.129 145.493Z" fill="#61DAFB"/>
    <path d="M69.2637 242.895C69.2812 242.899 69.2989 242.905 69.3165 242.914C70.1142 243.331 71.0249 248.784 71.0782 252.043C71.0963 253.154 71.0143 254.01 70.795 254.325C70.501 254.747 67.8583 256.462 64.921 258.139L59.5782 261.188L66.171 263.516C72.083 265.603 72.7637 266.12 72.7637 268.533C72.7638 270.012 73.0448 272.629 73.3887 274.348C74.2427 278.616 73.1254 278.466 56.7637 272.113L43.2637 266.872V258.534L55.7637 250.596C62.6386 246.229 68.7138 242.765 69.2637 242.895Z" fill="#4A7A9D"/>
    <path d="M113.002 239.473C114.071 239.473 140.683 249.307 141.598 250.04C141.609 250.049 141.62 250.065 141.633 250.086C141.653 250.121 141.675 250.172 141.698 250.237C141.723 250.306 141.749 250.391 141.775 250.491C141.835 250.713 141.9 251.007 141.967 251.354C142.109 252.098 142.26 253.086 142.385 254.14L142.837 257.973L129.238 266.327C123.911 269.6 119.18 272.356 116.818 273.591C116.254 273.886 115.826 274.094 115.556 274.202C115.475 274.234 115.408 274.258 115.357 274.271C115.304 274.286 115.266 274.289 115.245 274.283C115.24 274.282 115.236 274.279 115.232 274.276C115.01 274.053 114.53 271.342 114.167 268.253L113.508 262.635L119.202 259.421C122.334 257.653 124.529 255.872 124.08 255.463C123.63 255.054 120.948 253.968 118.118 253.05C112.573 251.252 111.802 250.057 111.777 243.223C111.768 240.9 112.235 239.473 113.002 239.473Z" fill="#4A7A9D"/>
    <path d="M354.705 256.421C358.448 255.285 359.038 255.333 358.43 256.723C358.129 257.411 356.795 260.572 355.466 263.748C352.861 269.973 352.531 269.945 349.501 263.244C347.855 259.603 347.867 259.488 349.982 258.356C351.172 257.719 353.297 256.848 354.705 256.421Z" fill="#4A7A9D"/>
    <path d="M393.764 251.363C393.764 250.528 402.451 251.162 403.983 252.109C404.877 252.662 403.89 260.551 402.772 261.787C402.045 262.591 393.764 253.008 393.764 251.363Z" fill="#4A7A9D"/>
    <path d="M234.7 68.249C236.1 67.149 251.1 69.949 253.7 71.749C254.9 72.749 254.9 74.0492 253.6 82.3486C252.7 87.5486 251.3 94.3486 250.4 97.3486C248.2 105.149 241 118.849 235.7 125.549C230.9 131.549 221.8 139.449 219.8 139.249C219.099 139.248 215.799 137.148 212.3 134.648L206 130.148L211.8 123.948C221.5 113.648 229.2 96.0487 232.1 77.5488C232.9 73.0491 234 68.8494 234.7 68.249Z" fill="#61DAFB"/>
    <path d="M474.472 54.5713C474.896 54.5524 475.237 54.5258 475.545 54.6133C476.872 54.9902 477.596 57.4899 481.763 71.9033C481.764 71.9062 481.764 71.9092 481.765 71.9121C481.858 72.2331 481.953 72.5606 482.049 72.8935L483.183 76.8134L485.841 70.2978L496.722 70.6357C499.153 70.7109 501.462 70.8387 503.375 70.9922C504.994 71.122 506.33 71.2706 507.217 71.4218C507.862 71.5318 508.269 71.6433 508.376 71.75C509.14 72.5159 506.158 86.2173 504.721 88.542C504.155 89.458 502.282 89.3564 496.749 88.1064C484.941 85.4405 485.452 84.5782 489.945 99.5859C492.104 106.798 493.607 112.963 493.283 113.286C492.344 114.224 481.47 117.442 479.182 117.458C477.318 117.471 476.211 114.48 468.566 88.7226C463.39 71.2819 460.386 59.5796 460.93 58.9726C461.424 58.4225 464.175 57.23 467.044 56.3213C469.914 55.4123 473.257 54.6253 474.472 54.5713Z" fill="#4A7A9D"/>
    <path d="M311.764 69.1611C322.116 68.3812 321.751 68.314 322.89 71.2226C325.427 77.7006 321.26 99.4584 316.403 105.105L314.114 107.766L307.358 106.491C303.642 105.79 300.395 104.674 300.141 104.012C299.987 103.611 300.02 102.525 300.195 101.192C300.274 100.592 300.382 99.9419 300.515 99.2812C300.574 98.9854 300.638 98.687 300.707 98.3906C301.273 95.9602 302.037 88.6768 302.404 82.2031C303.152 69.0341 302.564 69.8551 311.764 69.1611Z" fill="#4A7A9D"/>
    <path d="M198.343 63.6172C198.616 62.7762 199.634 62.4639 201.023 62.7949C202.256 63.0889 206.189 63.8759 209.764 64.5439C221.197 66.6819 221.294 66.9122 217.316 82.4726C214.391 93.9156 212.336 99.0389 210.368 99.7939C209.56 100.104 205.494 99.4317 201.331 98.3008C194.673 96.4908 193.764 95.9648 193.764 93.9228C193.764 91.3965 197.628 65.8221 198.343 63.6172Z" fill="#61DAFB"/>
    <path d="M531.733 22.7226C538.316 19.3968 539.346 19.7012 541.285 25.5381C542.21 28.323 542.808 30.7098 542.615 30.8398C542.421 30.9708 541.027 31.8519 539.514 32.7988C538.698 33.3088 538.075 33.8275 537.637 34.4521C536.322 36.3259 536.667 39.1551 538.452 45.5771C539.644 49.8651 539.842 52.1237 539.126 53.2597C538.354 54.4827 538.65 55.3589 540.358 56.9209C540.416 56.9737 540.475 57.0322 540.535 57.0957C540.635 57.2016 540.739 57.3226 540.844 57.456C542.022 58.9505 543.473 62.0855 544.278 64.9726C546.402 72.5876 547.179 73.4726 551.728 73.4726C555.178 73.4726 555.531 73.7521 556.606 77.3388C558.537 83.7858 558.3 84.2201 552.153 85.4961C547.359 86.4911 545.892 86.4121 542.068 84.9521C536.941 82.9941 534.516 79.7066 532.121 71.4726C530.129 64.6243 529.351 63.6382 526.387 64.2051C524.447 64.5761 523.821 64.076 522.894 61.416C521.475 57.3467 521.459 55.0773 522.9 54.1328C523.145 53.9718 523.433 53.849 523.764 53.7627C526.145 53.1396 526.232 51.5909 524.252 45.0644C520.945 34.1624 523.359 26.9526 531.733 22.7226Z" fill="#4A7A9D"/>
    <path d="M394.2 17.5117C402.3 12.012 402.7 11.9122 404.6 15.2119C406.3 18.1119 406.6 18.1115 416.9 18.8115C422.7 19.2115 428.999 19.9117 430.8 20.5117C441.6 23.8117 437.1 37.4121 419.6 54.9121C410.7 63.8117 397.701 73.3109 394.4 73.3115C393.9 73.3115 391.3 71.1117 388.7 68.5117L383.9 63.6123L390.8 58.5117C400.3 51.4117 415.3 35.3115 413.8 33.8115C412.299 32.3121 402.8 33.4121 396.7 35.7119C393 37.1119 389.1 38.3115 388 38.3115C386.8 38.3114 384.9 36.312 382.6 32.4121C380.6 29.2125 379 26.3126 379 25.9121C379 25.6121 381.5 24.2121 384.5 22.9121C387.5 21.5121 391.9 19.1117 394.2 17.5117Z" fill="#61DAFB"/>
    <path d="M308.264 43.0537C341.12 35.0488 343.857 35.4456 344.584 48.3105C344.63 49.1224 344.65 49.9427 344.646 50.7646C344.643 51.2575 344.632 51.7513 344.612 52.2441C344.567 53.3781 344.478 54.5085 344.351 55.6181C344.067 58.0855 343.591 60.4512 342.977 62.5312C341.766 66.6315 340.02 69.6213 338.155 70.0898C334.548 70.9948 325.573 69.776 324.605 68.249C324.159 67.547 323.787 65.0606 323.778 62.7226C323.766 59.2742 323.417 58.4727 321.931 58.4726C320.922 58.4726 313.067 60.0477 304.474 61.9726C295.882 63.8975 287.95 65.4723 286.846 65.4726C284.741 65.4726 283.557 62.5011 282.185 53.7724C281.617 50.1662 281.711 49.5848 283.516 49.0898C283.634 49.0573 283.76 49.0257 283.894 48.9931C285.198 48.674 296.164 46.0016 308.264 43.0537Z" fill="#4A7A9D"/>
    <path fill-rule="evenodd" clip-rule="evenodd" d="M435.822 83.5888C443.729 83.3878 443.752 83.4431 444.84 105.502C446.755 144.335 450.697 157.991 461.145 161.981C461.291 162.037 461.438 162.095 461.583 162.154C461.924 162.294 462.26 162.441 462.584 162.595C462.992 162.788 463.383 162.99 463.748 163.193C465.046 163.918 466.009 164.672 466.205 165.184C467.042 167.37 457.786 198.072 455.573 200.446C454.369 201.739 452.414 202.473 450.172 202.473C444.862 202.473 432.832 199.51 427.747 196.95L423.231 194.676L420.747 196.688C420.665 196.755 420.573 196.826 420.472 196.901C420.188 197.113 419.83 197.359 419.413 197.631C418.735 198.073 417.9 198.584 416.977 199.124C415.282 200.115 413.287 201.206 411.4 202.156C410.996 202.359 410.591 202.558 410.186 202.753C410.163 202.764 410.14 202.775 410.117 202.786C407.242 204.163 404.311 205.328 401.347 206.285C377.504 213.983 351.446 208.202 333.688 190.518C321.172 178.054 315.954 164.109 317.034 146.009C318.575 120.181 333.075 100.085 355.633 92.5097C364.628 89.4899 376.718 88.1943 385.769 89.2803C389.121 89.6829 391.244 89.8203 392.754 89.664C393.233 89.6144 393.65 89.5355 394.025 89.4258C394.259 89.3572 394.477 89.2762 394.683 89.1836C394.92 89.0771 395.141 88.9553 395.355 88.8164C396.524 88.0534 404.9 86.6261 414.355 85.5781C423.654 84.5481 433.314 83.6529 435.822 83.5888ZM372.401 131.268C376.733 127.423 382.576 125.885 388.421 127.054C394.351 128.24 395.542 130.151 397.294 141.272C398.186 146.936 399.735 154.516 400.733 158.117L402.549 164.665L397.405 167.06C388.407 171.249 376.997 169.815 371.568 163.811C368.464 160.379 365.808 153.09 365.796 147.973C365.783 142.555 369.08 134.217 372.401 131.268Z" fill="#4A7A9D"/>
    <path fill-rule="evenodd" clip-rule="evenodd" d="M86.6925 40.1328C122.492 38.1328 155.293 58.833 164.993 89.333C166.793 95.1329 167.193 98.5332 167.093 109.333C167.093 120.833 166.793 123.233 164.293 130.333C161.393 138.733 159.193 142.934 154.593 148.934L151.793 152.533L158.192 166.533C166.792 185.433 174.492 208.233 173.192 210.533C172.091 212.334 141.292 228.033 136.692 229.033C135.292 229.433 133.193 229.233 131.893 228.733C129.692 227.933 119.992 213.733 103.192 186.833L95.3927 174.233L84.793 173.033C78.9936 172.333 72.994 171.533 71.4932 171.233C68.7932 170.633 68.6928 170.734 68.5928 174.934C68.3928 190.633 65.9933 223.933 64.9932 224.934C62.7932 227.134 15.0925 224.633 12.6925 222.233C11.3926 220.933 11.6929 210.631 15.5928 133.033C19.4926 53.7388 20.0927 45.1344 21.6925 43.4336C23.3925 41.7336 24.493 41.6334 44.293 42.7334C62.2925 43.6333 65.9926 43.6329 70.6925 42.333C73.6924 41.433 80.8925 40.5328 86.6925 40.1328ZM74.6925 86.833C75.4924 86.333 79.1927 85.833 82.8927 85.833C100.193 85.833 112.793 97.1334 111.393 111.733C110.693 120.433 106.492 126.833 99.1925 130.633C93.3925 133.633 74.6936 132.733 71.793 129.233C71.393 128.733 71.5928 119.233 72.0928 108.033C72.9928 91.9339 73.4926 87.5333 74.6925 86.833Z" fill="#4A7A9D"/>
    <path d="M618.014 58.5576C621.714 58.3778 623.309 61.7978 625.69 75.0205C625.85 75.9042 626.01 76.7738 626.171 77.6201L626.175 77.6396C626.245 78.0093 626.315 78.3744 626.385 78.7344L626.417 78.8984C627.462 84.2694 628.445 88.4381 628.784 88.8135C629.203 89.2763 632.999 89.097 637.221 88.415C644.014 87.3191 645.082 87.3621 646.509 88.789C648.73 91.0127 655.114 126.947 653.742 129.512C652.668 131.519 651.924 131.809 643.514 133.476C640.177 134.137 637.764 135.141 637.764 135.869C637.764 138.256 642.665 151.522 645.412 156.57C645.516 156.762 645.621 156.95 645.726 157.136L645.738 157.158C645.848 157.351 645.957 157.541 646.067 157.728C649.365 163.339 653.048 166.264 658.434 167.62L658.86 167.733C659.024 167.779 659.187 167.827 659.348 167.876C661.442 168.519 663.206 169.464 663.459 170.124C664.081 171.744 659.978 200.968 658.492 205.65C658.11 206.665 657.571 207.5 656.821 208.167C654.25 210.455 649.196 210.774 639.464 209.632C614.268 206.676 602.224 193.874 590.351 157.429L586.264 144.885L580.264 146.136C572.187 147.819 568.256 147.771 566.764 145.973C564.906 143.733 558.802 108.502 559.812 105.846C560.42 104.247 562.005 103.373 565.751 102.569C568.562 101.966 571.713 101.473 572.753 101.473C573.794 101.473 574.883 101.09 575.172 100.621C575.462 100.151 574.502 93.3877 573.04 85.5888C570.41 71.5521 570.403 71.3888 572.324 69.4668C573.645 68.1477 582.022 65.9359 595.265 63.0849C606.815 60.642 617.052 58.6046 618.014 58.5576Z" fill="#4A7A9D"/>
    <path d="M353.751 232.409C357.743 231.512 369.763 235.338 369.764 237.506C369.764 238.035 368.189 240.661 366.264 243.34C364.339 246.02 362.764 248.671 362.764 249.233C362.761 250.448 347.583 255.425 346.55 254.551C345.53 253.686 344.979 245.617 345.395 241.15C345.453 240.525 345.636 239.544 345.733 239.09C346.543 235.311 349.891 233.388 353.412 232.49C353.525 232.462 353.638 232.435 353.751 232.409Z" fill="#4A7A9D"/>
    <path d="M393.364 226.518C394.393 226.07 399.724 229.186 401.065 231.02C404.354 235.522 405.786 249.84 402.76 247.97C402.2 247.624 398.799 247.198 395.204 247.023C389.339 246.738 388.281 246.348 384.909 243.228C382.841 241.315 380.163 239.222 378.957 238.577C377.751 237.931 376.778 237.082 376.794 236.688C376.851 235.379 385.715 229.255 389.516 227.898C391.574 227.165 393.303 226.544 393.364 226.518Z" fill="#4A7A9D"/>
    <path d="M370.716 244.043C374.131 239.079 374.27 238.987 376.056 240.489C380.066 243.86 382.763 246.448 382.764 246.925C382.764 247.227 380.767 247.473 378.328 247.473C375.889 247.473 372.677 247.936 371.19 248.501C369.703 249.066 368.281 249.323 368.028 249.071C367.776 248.82 368.986 246.557 370.716 244.043Z" fill="#4A7A9D"/>
    <path d="M340.219 264.158C344.387 261.47 345.755 261.5 345.775 264.282C345.783 265.212 346.942 267.991 348.352 270.458C350.358 273.969 350.796 275.816 350.37 278.958C349.049 288.693 348.502 290.473 346.829 290.473C344.028 290.472 334.897 285.458 332.768 282.751C328.529 277.362 331.59 269.723 340.219 264.158Z" fill="#4A7A9D"/>
    <path d="M353.488 296.607C354.441 296.075 355.55 295.842 355.954 296.091C356.358 296.34 358.843 296.582 361.476 296.628C367.022 296.725 369.562 297.938 375.749 303.443L380.235 307.434L376.749 310.462C367.152 318.801 356.666 318.224 353.926 309.207C351.807 302.233 351.647 297.639 353.488 296.607Z" fill="#4A7A9D"/>
    <path fill-rule="evenodd" clip-rule="evenodd" d="M373.891 251.896C387.617 249.943 386.826 249.735 392.401 256.723C402.722 269.657 402.176 268.123 399.07 275.473C398.722 276.297 398.381 277.197 398.313 277.473C398.245 277.748 396.932 280.732 395.394 284.104L392.598 290.234L381.431 291.741C368.392 293.499 369.234 293.885 360.568 282.204L355.546 275.436L357.125 270.604C362.246 254.949 363.681 253.349 373.891 251.896ZM369.787 268.901C371.571 263.495 377.206 261.385 383.051 263.936C385.246 264.894 387.766 269.57 387.759 272.673C387.751 276.323 383.757 280.466 379.774 280.958C373.057 281.786 367.678 275.292 369.787 268.901Z" fill="#4A7A9D"/>
    <path d="M410.955 291.347C413.556 304.967 408.927 312.735 399.156 311.149C391.029 309.83 384.159 305.791 387.518 304.306C387.933 304.122 389.72 301.722 391.488 298.973C394.355 294.517 395.552 293.633 402.484 290.847L410.264 287.721L410.955 291.347Z" fill="#4A7A9D"/>
    <path d="M408.348 253.752C408.603 252.812 409.59 252.853 412.65 253.933C423.379 257.719 428.126 264.292 424.954 270.973C423.423 274.197 415.418 281.473 413.401 281.473C412.728 281.473 410.703 278.387 408.901 274.615C405.683 267.877 405.647 267.645 406.821 261.365C407.478 257.849 408.166 254.424 408.348 253.752Z" fill="#4A7A9D"/>
</svg>